<mxfile host="app.diagrams.net" modified="2023-03-08T15:27:27.116Z" agent="5.0 (Windows NT 10.0; Win64; x64) AppleWebKit/537.36 (KHTML, like Gecko) Chrome/110.0.0.0 Safari/537.36" etag="JJy8qOGh4572y0a-8qME" version="21.0.2" type="github">
  <diagram name="Page-1" id="PZljKh_v9Sy79nO4WOEt">
    <mxGraphModel dx="1834" dy="756" grid="0" gridSize="10" guides="1" tooltips="1" connect="1" arrows="1" fold="1" page="0" pageScale="1" pageWidth="827" pageHeight="1169" math="0" shadow="0">
      <root>
        <mxCell id="0" />
        <mxCell id="1" parent="0" />
        <mxCell id="-IJt66C-pTHhGQoxeayv-2" value="" style="rounded=1;whiteSpace=wrap;html=1;sketch=1;hachureGap=4;jiggle=2;curveFitting=1;fontFamily=Architects Daughter;fontSource=https%3A%2F%2Ffonts.googleapis.com%2Fcss%3Ffamily%3DArchitects%2BDaughter;fontSize=20;arcSize=5;" vertex="1" parent="1">
          <mxGeometry x="-140" y="84" width="1154" height="556" as="geometry" />
        </mxCell>
        <mxCell id="-IJt66C-pTHhGQoxeayv-3" value="" style="endArrow=none;html=1;rounded=0;sketch=1;hachureGap=4;jiggle=2;curveFitting=1;fontFamily=Architects Daughter;fontSource=https%3A%2F%2Ffonts.googleapis.com%2Fcss%3Ffamily%3DArchitects%2BDaughter;fontSize=16;entryX=0.071;entryY=0.004;entryDx=0;entryDy=0;entryPerimeter=0;exitX=0.073;exitY=1.004;exitDx=0;exitDy=0;exitPerimeter=0;" edge="1" parent="1" source="-IJt66C-pTHhGQoxeayv-2" target="-IJt66C-pTHhGQoxeayv-2">
          <mxGeometry width="50" height="50" relative="1" as="geometry">
            <mxPoint x="-122" y="31" as="sourcePoint" />
            <mxPoint x="-72" y="-19" as="targetPoint" />
          </mxGeometry>
        </mxCell>
        <mxCell id="-IJt66C-pTHhGQoxeayv-4" value="" style="endArrow=none;html=1;rounded=0;sketch=1;hachureGap=4;jiggle=2;curveFitting=1;fontFamily=Architects Daughter;fontSource=https%3A%2F%2Ffonts.googleapis.com%2Fcss%3Ffamily%3DArchitects%2BDaughter;fontSize=16;entryX=0.071;entryY=0.004;entryDx=0;entryDy=0;entryPerimeter=0;exitX=0.073;exitY=1.004;exitDx=0;exitDy=0;exitPerimeter=0;" edge="1" parent="1">
          <mxGeometry width="50" height="50" relative="1" as="geometry">
            <mxPoint x="31" y="640" as="sourcePoint" />
            <mxPoint x="29" y="84" as="targetPoint" />
          </mxGeometry>
        </mxCell>
        <mxCell id="-IJt66C-pTHhGQoxeayv-5" value="" style="endArrow=none;html=1;rounded=0;sketch=1;hachureGap=4;jiggle=2;curveFitting=1;fontFamily=Architects Daughter;fontSource=https%3A%2F%2Ffonts.googleapis.com%2Fcss%3Ffamily%3DArchitects%2BDaughter;fontSize=16;entryX=0.071;entryY=0.004;entryDx=0;entryDy=0;entryPerimeter=0;exitX=0.073;exitY=1.004;exitDx=0;exitDy=0;exitPerimeter=0;" edge="1" parent="1">
          <mxGeometry width="50" height="50" relative="1" as="geometry">
            <mxPoint x="122" y="640" as="sourcePoint" />
            <mxPoint x="120" y="84" as="targetPoint" />
          </mxGeometry>
        </mxCell>
        <mxCell id="-IJt66C-pTHhGQoxeayv-6" value="" style="endArrow=none;html=1;rounded=0;sketch=1;hachureGap=4;jiggle=2;curveFitting=1;fontFamily=Architects Daughter;fontSource=https%3A%2F%2Ffonts.googleapis.com%2Fcss%3Ffamily%3DArchitects%2BDaughter;fontSize=16;exitX=0;exitY=0.094;exitDx=0;exitDy=0;exitPerimeter=0;entryX=0.999;entryY=0.092;entryDx=0;entryDy=0;entryPerimeter=0;" edge="1" parent="1" source="-IJt66C-pTHhGQoxeayv-2" target="-IJt66C-pTHhGQoxeayv-2">
          <mxGeometry width="50" height="50" relative="1" as="geometry">
            <mxPoint x="-264" y="196" as="sourcePoint" />
            <mxPoint x="-214" y="146" as="targetPoint" />
          </mxGeometry>
        </mxCell>
        <mxCell id="-IJt66C-pTHhGQoxeayv-7" value="Crypto/&lt;br&gt;Fiat" style="text;html=1;align=center;verticalAlign=middle;resizable=0;points=[];autosize=1;strokeColor=none;fillColor=none;fontSize=20;fontFamily=Architects Daughter;" vertex="1" parent="1">
          <mxGeometry x="-145" y="81" width="94" height="60" as="geometry" />
        </mxCell>
        <mxCell id="-IJt66C-pTHhGQoxeayv-8" value="Rec?" style="text;html=1;align=center;verticalAlign=middle;resizable=0;points=[];autosize=1;strokeColor=none;fillColor=none;fontSize=20;fontFamily=Architects Daughter;" vertex="1" parent="1">
          <mxGeometry x="-46" y="90" width="66" height="36" as="geometry" />
        </mxCell>
        <mxCell id="-IJt66C-pTHhGQoxeayv-9" value="Direct &lt;br&gt;Buy?" style="text;html=1;align=center;verticalAlign=middle;resizable=0;points=[];autosize=1;strokeColor=none;fillColor=none;fontSize=20;fontFamily=Architects Daughter;" vertex="1" parent="1">
          <mxGeometry x="38" y="81" width="77" height="60" as="geometry" />
        </mxCell>
        <mxCell id="-IJt66C-pTHhGQoxeayv-10" value="Description" style="text;html=1;align=center;verticalAlign=middle;resizable=0;points=[];autosize=1;strokeColor=none;fillColor=none;fontSize=20;fontFamily=Architects Daughter;" vertex="1" parent="1">
          <mxGeometry x="475" y="93" width="122" height="36" as="geometry" />
        </mxCell>
      </root>
    </mxGraphModel>
  </diagram>
</mxfile>
